HIERARCHY
ROOT Hips
{
  OFFSET -331.093 83.8371 -317.828
  CHANNELS 6 Xposition Yposition Zposition Zrotation Xrotation Yrotation
  JOINT LeftUpLeg
  {
    OFFSET 8.64259 1.95398 -2.38835
    CHANNELS 3 Zrotation Xrotation Yrotation
    JOINT LeftLeg
    {
      OFFSET 43.7702 0 0
      CHANNELS 3 Zrotation Xrotation Yrotation
      JOINT LeftFoot
      {
        OFFSET 40.6238 0 0
        CHANNELS 3 Zrotation Xrotation Yrotation
        JOINT LeftToeBase
        {
          OFFSET 12.7242 0 0
          CHANNELS 3 Zrotation Xrotation Yrotation
          End Site
          {
            OFFSET 0 0 0
          }
        }
      }
    }
  }
  JOINT RightUpLeg
  {
    OFFSET -8.2249 1.95398 -2.59336
    CHANNELS 3 Zrotation Xrotation Yrotation
    JOINT RightLeg
    {
      OFFSET 43.5653 0 0
      CHANNELS 3 Zrotation Xrotation Yrotation
      JOINT RightFoot
      {
        OFFSET 40.6238 0 0
        CHANNELS 3 Zrotation Xrotation Yrotation
        JOINT RightToeBase
        {
          OFFSET 12.7242 0 0
          CHANNELS 3 Zrotation Xrotation Yrotation
          End Site
          {
            OFFSET 0 0 0
          }
        }
      }
    }
  }
  JOINT Spine
  {
    OFFSET 0.165834 0.87714 6.61349
    CHANNELS 3 Zrotation Xrotation Yrotation
    JOINT Spine1
    {
      OFFSET 7.38963 1.71661e-005 0
      CHANNELS 3 Zrotation Xrotation Yrotation
      JOINT Spine2
      {
        OFFSET 11.9445 1.14441e-005 0
        CHANNELS 3 Zrotation Xrotation Yrotation
        JOINT Spine3
        {
          OFFSET 14.7254 4.19617e-005 0
          CHANNELS 3 Zrotation Xrotation Yrotation
          JOINT Spine4
          {
            OFFSET 10.9679 0 0
            CHANNELS 3 Zrotation Xrotation Yrotation
            JOINT RightShoulder
            {
              OFFSET 2.46616 -1.6653 3.69651
              CHANNELS 3 Zrotation Xrotation Yrotation
              JOINT RightArm
              {
                OFFSET 13.0012 0 0
                CHANNELS 3 Zrotation Xrotation Yrotation
                JOINT RightForeArm
                {
                  OFFSET 28.7848 1.62311e-005 0
                  CHANNELS 3 Zrotation Xrotation Yrotation
                  JOINT RightHand
                  {
                    OFFSET 26.5688 1.62095e-005 0
                    CHANNELS 3 Zrotation Xrotation Yrotation
                    End Site
                    {
                      OFFSET 0 0 0
                    }
                  }
                }
              }
            }
            JOINT LeftShoulder
            {
              OFFSET 2.38034 -1.29275 -3.7523
              CHANNELS 3 Zrotation Xrotation Yrotation
              JOINT LeftArm
              {
                OFFSET 16.3182 6.07031e-005 0
                CHANNELS 3 Zrotation Xrotation Yrotation
                JOINT LeftForeArm
                {
                  OFFSET 27.0901 0 0
                  CHANNELS 3 Zrotation Xrotation Yrotation
                  JOINT LeftHand
                  {
                    OFFSET 24.5451 1.51738e-005 0
                    CHANNELS 3 Zrotation Xrotation Yrotation
                    End Site
                    {
                      OFFSET 0 0 0
                    }
                  }
                }
              }
            }
            JOINT Neck
            {
              OFFSET 5.0226 -0.0266342 0
              CHANNELS 3 Zrotation Xrotation Yrotation
              JOINT Head
              {
                OFFSET 6.69364 2.86102e-005 0
                CHANNELS 3 Zrotation Xrotation Yrotation
                End Site
                {
                  OFFSET 0 0 0
                }
              }
            }
          }
        }
      }
    }
  }
}
MOTION
Frames:	17
Frame Time:	0.0416667
327.738 92.8814 227.811 85.6519 -54.372 80.7221 -168.179 40.2655 88.6959 -44.0592 68.4492 -14.7412 44.236 -0.499216 42.1336 25.9199 6.63796 36.2061 -172.509 20.6497 86.4774 -65.1358 4.55946 -11.0709 68.1683 -2.88922 -2.14766 64.1087 -4.30426 -8.01488 0.0970975 7.83609 -89.7102 11.2006 0.328032 0.544618 -0.470422 0.351682 0.529644 -23.0048 0.149165 0.618017 -2.99211 0.149184 0.618021 91.6782 -38.3412 -100.566 28.191 -12.6255 16.9271 -13.4088 -3.3386 -68.4392 -16.382 -0.778659 0.20297 -93.5574 -47.0554 73.1025 -38.3789 7.06389 33.1336 -7.13192 -7.78976 -64.2146 35.0601 2.52727 3.34627 2.2479 -1.4123 2.53776 0.634344 -1.74432 2.11994 
321.789 92.1613 223.71 85.2925 -53.4264 79.7136 -162.973 40.377 83.9929 -62.5575 68.1382 -12.3548 44.1611 1.64967 47.126 27.1711 8.7763 37.5198 -173.38 26.6775 86.9034 -66.8432 9.59757 -9.74597 75.1839 -6.52997 -3.80576 49.1157 -1.11956 -2.85847 -0.0625499 7.88775 -89.6417 11.098 0.0418749 0.709092 -0.573128 0.0730297 0.706558 -23.1069 -0.173177 0.688892 -3.09419 -0.173193 0.688882 91.0182 -39.3785 -101.441 29.4241 -13.6748 17.3071 -12.792 -7.11554 -58.5877 -14.1263 -0.803565 1.22585 -94.6548 -48.1733 71.7808 -32.7255 6.74449 26.6404 -7.8518 -8.25565 -62.6664 37.5399 2.84108 3.69464 1.92684 -0.831629 2.69838 1.45346 -1.16141 2.57632 
316.714 91.2541 220.362 83.0517 -52.2282 78.912 -159.742 38.24 81.4637 -79.7127 62.3611 -7.1672 46.7952 8.59567 51.0196 19.4292 -3.14075 27.0629 -171.348 32.4947 88.3227 -69.1406 8.51584 -8.98098 76.3331 -7.75708 -4.2374 41.9225 -2.00219 -7.29511 -0.169211 7.84829 -89.8215 11.1777 -0.253772 0.380338 -0.493255 -0.236785 0.391131 -23.0283 -0.356348 0.286485 -3.01561 -0.356347 0.286485 91.1773 -39.97 -101.004 30.5611 -16.5379 17.412 -11.6405 -12.1828 -49.2781 -10.6106 -0.695763 1.98643 -97.1378 -50.4543 68.8335 -25.7329 5.73565 19.5832 -6.94175 -7.66892 -62.3439 38.1233 2.84196 3.56888 3.461 -0.147149 3.22168 1.77754 -0.587741 3.14991 
311.643 91.7332 217.109 83.2328 -51.5878 80.1595 -158.658 31.7898 81.3913 -88.8199 44.8961 -2.42978 59.0712 25.8543 47.4131 -20.978 -33.9695 -1.3025 -170.952 35.5824 89.8004 -67.0442 7.90163 -8.10941 70.9131 -5.97043 -3.53179 45.1491 -2.60933 -8.67344 -0.368082 7.90065 -89.9231 11.0734 -0.69683 0.220156 -0.597412 -0.686478 0.250617 -23.1341 -0.730795 0.000537763 -3.12144 -0.730793 0.000537419 90.707 -40.5674 -101.651 32.0339 -18.9197 18.087 -8.25088 -15.0418 -42.2827 -3.20077 -0.28077 4.13841 -98.2062 -51.0789 67.5023 -20.6694 3.74404 14.3959 -6.41272 -7.27099 -65.3877 37.8498 2.67773 3.1666 4.98493 1.29883 3.75801 0.619463 0.636633 2.12121 
306.206 92.9146 213.824 84.3376 -51.5943 81.5438 -157.797 22.6414 84.9528 -86.8865 19.5414 0.0790114 100.178 35.2635 6.03614 -63.0869 -48.8216 -20.4838 -170.199 37.549 90.5943 -63.4899 6.14218 -7.54731 67.9396 -6.43035 -3.63381 41.6744 -2.37769 -9.14617 -0.556231 7.96308 -89.9322 10.9492 -1.07604 0.236917 -0.721315 -1.06456 0.284046 -23.26 -1.09748 -0.0974712 -3.24739 -1.09748 -0.0974602 90.1786 -41.0829 -102.407 33.8339 -20.3322 20.2776 -8.77597 -19.6962 -39.5601 1.27818 -0.0390444 2.3072 -97.9038 -50.4061 67.712 -18.9028 0.496509 11.558 -6.38137 -6.6132 -73.1986 34.4829 3.2356 5.58991 2.97588 2.25072 4.15162 2.9667 1.63241 2.50599 
301.475 93.2915 210.236 82.4493 -52.3134 79.7249 -159.321 15.7444 86.3816 -78.9695 12.9966 -0.290252 116.849 31.8485 -11.4061 -83.6371 -53.8063 -29.3504 -168.912 41.347 89.636 -60.9223 2.41329 -7.5497 63.2183 -4.07766 -2.51302 42.161 -2.93861 -11.2438 -0.726219 7.90284 -89.757 11.0719 -1.33286 0.61232 -0.59856 -1.30464 0.670382 -23.139 -1.45527 0.183356 -3.12634 -1.45527 0.183347 89.8495 -42.3181 -102.613 35.1248 -21.0786 23.794 -8.94792 -19.3358 -41.4647 -6.13164 -0.438209 1.12011 -96.1377 -49.3202 69.9319 -17.8559 -3.53711 11.1819 -2.05777 -1.56497 -86.8703 33.7249 1.83265 1.51452 3.72698 3.6125 3.94456 2.84152 2.97956 2.68616 
296.195 93.5107 205.448 81.0037 -50.8157 79.8792 -162.153 14.1543 87.7663 -71.8603 20.0669 -1.0683 110.92 34.9939 -4.85462 -82.8807 -56.4972 -25.9915 -171.619 45.4668 90.3641 -56.0874 2.13464 -6.62896 59.2538 -1.14143 -0.901013 37.3097 -1.81578 -8.6442 -0.910945 7.9172 -89.8393 11.0448 -1.73889 0.486656 -0.625151 -1.71579 0.562736 -23.1697 -1.80474 -0.0586131 -3.15707 -1.80475 -0.0586253 89.5188 -42.8955 -103 36.5622 -20.6298 27.4738 -6.3176 -12.3855 -45.1997 -8.32623 -0.447 0.155135 -96.503 -49.0311 69.3024 -15.9792 -4.13072 10.7965 -1.00814 -5.60844 -100.975 35.3272 3.1086 5.02562 2.49001 4.1093 4.29729 4.96074 3.4973 2.57374 
290.776 95.3646 200.16 78.3772 -52.1238 78.3689 -163.089 12.913 87.9869 -60.5623 22.0154 -2.78394 102.029 31.8081 -0.351421 -39.7537 -55.4557 13.3572 -173.018 46.1578 90.7484 -44.687 -2.8831 -6.5551 55.3358 1.43533 0.887867 24.5446 -0.47942 -6.37145 -0.7758 8.00662 -89.7635 10.8658 -1.43529 0.605928 -0.804509 -1.40723 0.668516 -23.3459 -1.55103 0.146463 -3.33329 -1.55104 0.14645 89.2584 -43.1677 -103.352 37.0443 -19.0698 26.3346 -5.49598 -8.61051 -45.9252 -9.22547 -0.270557 -2.69564 -95.5133 -47.8377 70.3899 -15.4653 -4.04404 9.72908 3.34766 -5.10836 -110.132 29.2348 2.5092 4.72106 1.97083 4.57785 4.21232 6.41848 4.00239 2.35307 
286.311 98.9127 195.049 74.0512 -55.3466 75.3689 -168.786 13.0238 85.9784 -47.7324 12.6811 -3.63256 85.8546 18.7027 0.867751 6.19457 -19.1798 29.8238 -173.887 42.0219 90.9646 -27.8062 -14.5738 -6.54866 48.968 5.38707 4.31119 20.6544 -0.253647 -8.42964 -0.397691 8.08513 -89.6861 10.7052 -0.647141 0.683505 -0.965735 -0.616451 0.711323 -23.5014 -0.822637 0.457408 -3.4888 -0.822655 0.4574 89.4587 -43.3384 -102.973 35.8249 -18.9822 23.1729 -5.06254 -6.22146 -48.008 -11.7774 -0.200388 -3.76139 -93.6152 -46.9986 72.9982 -16.1466 -0.62374 8.52884 6.03528 -7.13192 -112.887 26.4406 1.82208 3.0658 3.89348 4.93733 4.20059 5.91698 4.25211 2.11322 
281.714 101.018 190.098 69.6691 -56.368 73.1693 -175.425 17.0446 85.19 -40.5341 7.39543 -1.2602 68.1587 5.82787 2.63125 41.5528 16.888 16.3002 -173.487 40.9087 91.1885 -26.7265 -20.4064 -6.96289 55.5444 2.97005 2.19129 30.7982 -1.38787 -9.93868 -0.142661 7.97784 -89.6673 10.9181 -0.130092 0.674153 -0.75299 -0.100254 0.679218 -23.287 -0.326687 0.603893 -3.27441 -0.326668 0.6039 88.844 -43.9009 -103.82 34.5079 -19.3472 21.9492 -4.91671 -3.89131 -55.5154 -14.348 -0.467371 -1.54432 -91.7366 -44.9432 75.3158 -19.0457 4.89826 8.35062 6.40733 -8.75032 -110.235 28.3963 1.90657 2.97232 1.77812 4.62432 2.8469 9.20235 4.3908 3.14964 
276.692 101.113 185.437 69.5535 -56.5243 73.494 -176.36 20.8569 86.1446 -39.8857 7.06111 -0.647628 64.3434 2.6968 1.98861 52.8902 23.5999 8.02817 -173.312 40.4645 90.9383 -39.4068 -11.2845 -7.0957 63.9453 -1.44957 -0.924228 36.3292 -2.25219 -11.3846 -0.000887236 7.90727 -89.6632 11.0584 0.154502 0.655432 -0.612716 0.183194 0.647993 -23.1465 -0.0496241 0.671571 -3.13388 -0.0496193 0.671561 89.0995 -43.082 -103.638 34.0594 -18.4289 19.6228 -5.06622 -2.30123 -59.4072 -16.5608 -0.541194 -1.47155 -92.528 -45.3526 74.1988 -20.3216 8.4852 10.3815 8.16894 -9.11898 -103.893 26.5552 2.31255 4.98309 1.86593 4.77495 3.82595 7.09177 4.23817 1.6525 
271.451 100.973 180.783 72.7357 -55.9655 76.3144 -175.101 24.9044 87.4224 -42.2536 7.77486 -1.28975 66.0211 3.80641 2.21796 43.0991 15.0875 9.33109 -175.979 36.8446 90.6929 -52.6241 -1.93369 -5.87664 67.4002 -3.33074 -2.06526 36.3531 -2.23531 -11.2721 0.0683635 7.9039 -89.6683 11.0649 0.289988 0.63211 -0.6062 0.317533 0.618729 -23.1402 0.0866234 0.690051 -3.12752 0.0866133 0.69004 90.4779 -41.973 -101.656 33.8313 -18.5673 16.1161 -4.61242 -0.845204 -62.5832 -19.6152 -0.547707 -1.98447 -93.2861 -46.0671 73.2303 -22.3959 10.9488 13.5507 9.46547 -7.84182 -94.8579 28.0125 1.42615 1.20441 2.14992 4.63803 4.69341 4.97587 3.81131 0.0436715 
266.42 99.4883 176.281 75.8728 -55.1701 78.838 -174.891 29.875 88.6151 -45.937 13.1022 -1.41157 62.1873 2.11555 4.39934 48.4372 18.1965 5.8708 -178.306 31.9422 89.5724 -65.3615 0.601302 -5.27253 68.1639 -3.86475 -2.48688 41.5134 -2.8691 -11.3055 0.075797 7.90498 -89.6209 11.0623 0.326934 0.722865 -0.608815 0.358404 0.707785 -23.1424 0.094558 0.787713 -3.12976 0.0945564 0.787694 90.0753 -41.8364 -102.37 32.3274 -17.043 12.7077 -6.14308 -1.23169 -65.7012 -20.9968 -0.692609 -1.39711 -93.3071 -46.3696 73.286 -25.1993 10.5485 16.6433 10.2602 -5.3578 -85.3918 28.9697 1.6867 1.95902 1.72851 4.4898 5.03031 4.95547 3.53686 -1.59926 
262.095 97.6808 172.313 79.3297 -55.3751 81.4464 -175.185 32.938 89.4262 -48.1288 16.6595 -1.29013 61.1903 1.7948 5.33292 45.8699 17.5705 9.13188 -179.359 24.1618 87.6994 -73.1706 -1.48499 -5.8609 67.6221 -3.70855 -2.56509 41.0239 -2.35741 -9.34809 0.383865 8.02703 -89.6091 10.8169 0.944892 0.688876 -0.853894 0.97428 0.646618 -23.3893 0.694172 0.941005 -3.37668 0.694162 0.940989 90.5104 -40.4372 -102.027 31.5669 -15.5513 10.0404 -7.31975 -0.398197 -70.7224 -23.7335 -0.762888 -1.45005 -94.084 -47.0347 72.2991 -27.9026 11.7211 18.4508 3.68241 -4.38202 -73.7049 31.8052 3.0721 5.91687 5.35752 4.39957 4.29573 0.665482 3.51291 -0.242484 
258.301 96.1626 168.52 83.2004 -55.1749 84.273 -175.914 33.8785 89.3264 -47.7639 17.211 -0.963084 60.865 2.21344 6.79175 44.7671 15.3075 6.62695 179.745 14.1603 84.9561 -74.2977 -4.02282 -7.20042 63.7855 -1.94513 -1.71967 41.8846 -1.85532 -6.85678 0.632028 8.03973 -89.7693 10.7923 1.36503 0.332744 -0.877929 1.37837 0.27233 -23.4174 1.20192 0.727665 -3.40476 1.20192 0.727664 92.0133 -34.6285 -100.99 34.2918 -16.6995 8.38999 -10.6463 0.329047 -77.1037 -24.8419 -0.577692 -2.52269 -96.2323 -49.0579 69.7086 -30.8599 12.4984 23.5312 4.66391 -0.952535 -64.2833 34.2839 2.99971 4.94693 4.12401 3.19638 8.13015 0.116746 1.65047 -4.15731 
254.049 95.833 164.516 86.2247 -56.1172 85.7331 -175.815 33.9314 89.286 -43.8131 14.0353 -1.1407 58.6243 -0.342947 3.56538 43.536 12.9846 3.98319 178.672 4.1465 81.7211 -68.3825 -6.26474 -9.81658 64.7777 -2.14814 -1.78659 41.4048 -2.10244 -8.09514 0.869772 7.86933 -89.6216 11.1321 1.90677 0.566583 -0.53751 1.92985 0.482081 -23.0807 1.64834 1.11358 -3.06801 1.64833 1.11358 91.9032 -33.9552 -101.386 33.0584 -19.4181 7.98044 -12.1437 2.34983 -84.1611 -22.5926 -0.949381 -0.323327 -95.0891 -48.2722 71.1613 -37.7751 13.1481 33.9705 4.13264 -1.50976 -65.8631 36.0311 3.03133 4.5753 2.20194 2.90438 5.90686 -1.84349 1.91214 -2.57858 
248.7 97.2955 159.927 87.1832 -57.0395 86.7894 -176.203 32.2093 91.4495 -32.8476 14.1788 -1.34024 54.5605 -3.40283 0.523951 34.6469 5.87365 4.81182 177.993 -1.56439 82.0363 -59.1246 -7.89297 -12.5515 65.2435 -1.69688 -1.5779 41.6669 -1.59943 -5.84653 1.25006 7.78782 -89.757 11.298 2.6008 0.225064 -0.370347 2.60821 0.110292 -22.924 2.41286 0.996759 -2.91134 2.41287 0.99675 91.8711 -32.463 -101.9 31.5751 -21.3681 8.1823 -13.9931 3.11081 -88.7099 -22.5119 -1.07726 0.362332 -94.4966 -48.2065 72.0244 -43.0566 12.9782 41.0091 3.52072 -2.85591 -69.5356 35.9431 3.0442 4.6365 -1.29088 0.745258 7.87958 0.147301 -0.372338 -5.2779 
